<?xml version="1.0" standalone="no"?>
<!DOCTYPE svg PUBLIC "-//W3C//DTD SVG 20010904//EN"
 "http://www.w3.org/TR/2001/REC-SVG-20010904/DTD/svg10.dtd">
<svg version="1.0" xmlns="http://www.w3.org/2000/svg"
 width="256.000000pt" height="256.000000pt" viewBox="0 0 256.000000 256.000000"
 preserveAspectRatio="xMidYMid meet">
<metadata>
Created by potrace 1.11, written by Peter Selinger 2001-2013
</metadata>
<g transform="translate(0.000000,256.000000) scale(0.100000,-0.100000)"
fill="#000000" stroke="none">
<path d="M648 2415 c-2 -1 -23 -5 -48 -8 -105 -14 -203 -58 -297 -134 -125
-101 -202 -218 -244 -370 -40 -146 -13 -363 66 -531 35 -72 126 -218 162 -257
10 -11 48 -54 84 -95 120 -135 302 -312 689 -668 30 -28 91 -85 135 -127 43
-41 82 -75 85 -75 3 0 30 24 61 53 121 113 304 284 338 315 569 527 729 724
806 989 35 120 44 291 21 383 -36 138 -85 221 -200 335 -103 101 -192 151
-331 182 -41 9 -172 5 -230 -6 -68 -14 -225 -87 -270 -125 -60 -52 -126 -122
-158 -168 -18 -26 -34 -47 -37 -47 -3 0 -19 21 -37 47 -105 155 -296 278 -461
298 -66 8 -130 12 -134 9z"/>
</g>
</svg>
